<svg width="522" height="88" viewBox="0 0 522 88" fill="none" xmlns="http://www.w3.org/2000/svg">
<path d="M520.5 30.6041C513.086 30.6041 513.086 37.7742 505.671 37.7742C498.257 37.7742 498.566 38.7224 490.843 38.7224C483.12 38.7224 483.738 43.5998 476.014 43.5998C468.291 43.5998 469.527 40.0532 461.186 40.0532C452.845 40.0532 455.007 48.67 446.357 48.67C437.707 48.67 438.943 41.9173 431.529 41.9173C424.114 41.9173 424.732 45.2387 416.7 45.2387C408.668 45.2387 409.904 42.7035 401.871 42.7035C393.839 42.7035 395.075 49.0413 387.043 49.0413C379.011 49.0413 379.938 52.1142 372.214 52.1142C364.491 52.1142 365.109 45.2003 357.386 45.2003C349.662 45.2003 350.589 36.6443 342.557 36.6443C334.525 36.6443 336.379 48.0811 327.729 48.0811C319.079 48.0811 320.623 43.1901 312.9 43.1901C305.177 43.1901 303.887 0.388069 298.071 0.999875C292.288 1.60837 291.275 46.3285 283.243 46.3285C275.211 46.3285 276.138 47.9402 268.414 47.9402C260.691 47.9402 262.236 53.6378 253.586 53.6378C244.936 53.6378 247.098 50.1808 238.757 50.1808C230.416 50.1808 232.579 57.2228 223.929 57.2228C215.279 57.2228 217.441 54.5085 209.1 54.5085C200.759 54.5085 202.304 50.3985 194.271 50.3985C186.239 50.3985 187.475 57.2469 179.443 57.2469C171.411 57.2469 173.264 61.5504 164.614 61.5504C155.964 61.5504 155.299 62.879 149.786 67.1968C143.363 72.2269 143.298 86.9063 134.957 86.9063C126.616 86.9063 126.168 77.8796 120.129 74.815C114.464 71.9406 113.95 71.3068 105.3 71.3068C96.65 71.3068 98.8125 68.7589 90.4714 68.7589C82.1304 68.7589 83.675 76.5691 75.6429 76.5691C67.6107 76.5691 69.4643 78.2079 60.8143 78.2079C52.1643 78.2079 54.6357 73.8931 45.9857 73.8931C37.3357 73.8931 38.5715 71.5885 31.1572 71.5885C23.7429 71.5885 23.7429 79.0785 16.3286 79.0785C8.9143 79.0785 9.53214 76.441 1.5 76.441" stroke="#15B79F" stroke-width="2" stroke-linecap="round" stroke-linejoin="round"/>
</svg>
