<svg width="522" height="202" viewBox="0 0 522 202" fill="none" xmlns="http://www.w3.org/2000/svg">
<path d="M520.5 1.94791C513.086 1.94791 513.086 18.072 505.671 18.072C498.257 18.072 498.566 11.3056 490.843 11.3056C483.12 11.3056 483.738 31.1728 476.014 31.1728C468.291 31.1728 469.527 23.1972 461.186 23.1972C452.845 23.1972 455.007 42.5749 446.357 42.5749C437.707 42.5749 438.943 14.041 431.529 14.041C424.114 14.041 424.732 34.8583 416.7 34.8583C408.668 34.8583 409.904 29.1573 401.871 29.1573C393.839 29.1573 395.075 43.4099 387.043 43.4099C379.011 43.4099 379.938 50.3202 372.214 50.3202C364.491 50.3202 365.109 34.772 357.386 34.772C349.662 34.772 350.589 51.1264 342.557 51.1264C334.525 51.1264 336.379 41.2504 327.729 41.2504C319.079 41.2504 320.623 30.2515 312.9 30.2515C305.177 30.2515 306.104 55.359 298.071 55.359C290.039 55.359 291.275 19.5117 283.243 19.5117C275.211 19.5117 276.138 40.9337 268.414 40.9337C260.691 40.9337 262.236 53.7466 253.586 53.7466C244.936 53.7466 247.098 45.9725 238.757 45.9725C230.416 45.9725 232.579 61.8086 223.929 61.8086C215.279 61.8086 217.441 55.7045 209.1 55.7045C200.759 55.7045 202.304 46.4619 194.271 46.4619C186.239 46.4619 187.475 79.6603 179.443 79.6603C171.411 79.6603 173.264 71.5407 164.614 71.5407C155.964 71.5407 157.2 84.2384 149.786 84.2384C142.371 84.2384 143.298 75.1686 134.957 75.1686C126.616 75.1686 127.852 101.37 120.129 101.37C112.405 101.37 113.95 93.481 105.3 93.481C96.65 93.481 98.8125 87.7511 90.4714 87.7511C82.1304 87.7511 83.675 105.315 75.6428 105.315C67.6107 105.315 69.4643 109 60.8143 109C52.1643 109 54.6357 99.2971 45.9857 99.2971C37.3357 99.2971 38.5714 94.1144 31.1572 94.1144C23.7429 94.1144 23.7429 110.958 16.3286 110.958C8.9143 110.958 9.53215 105.027 1.5 105.027" stroke="#8A94A6" stroke-width="2" stroke-linecap="round" stroke-linejoin="round" stroke-dasharray="4 4"/>
</svg>
